<svg width="30" height="27" viewBox="0 0 30 27" fill="none" xmlns="http://www.w3.org/2000/svg">
<path d="M17.6076 9.46315L17.3574 10.6667H18.5866H27C27.9144 10.6667 28.6666 11.419 28.6666 12.3333V15C28.6666 15.208 28.6285 15.4007 28.5539 15.5956L24.5341 24.9796L24.5341 24.9796L24.5302 24.9887C24.2822 25.5841 23.6943 26 23 26H11C10.0856 26 9.33331 25.2477 9.33331 24.3333V11C9.33331 10.5389 9.51589 10.13 9.81733 9.83674L9.82252 9.83169L9.82762 9.82658L17.8972 1.74475L18.5995 2.44045C18.6 2.44087 18.6004 2.44128 18.6008 2.4417C18.7721 2.61369 18.8824 2.85304 18.8925 3.1081L18.8629 3.42445L17.6076 9.46315ZM4.66665 12V26H1.33331V12H4.66665Z" fill="black" stroke="white" stroke-width="2"/>
</svg>
